<?xml version="1.0" encoding="UTF-8"?>
<svg id="Layer_1" data-name="Layer 1" xmlns="http://www.w3.org/2000/svg" viewBox="0 0 600 600">
  <defs>
    <style>
      .cls-1 {
        fill: #d12027;
      }
    </style>
  </defs>
  <path class="cls-1" d="M566.89,466.26c-252.78,0-491.49-86.76-491.49-183.86s242-137.8,494.79-137.8h-20.94c-265.37,0-519.42,40.7-519.42,137.8s250.59,183.86,515.96,183.86"/>
  <path class="cls-1" d="M567.3,445.96c-220.87,0-429.44-75.8-429.44-160.65s211.45-120.4,432.32-120.4h-18.3c-231.87,0-453.84,35.56-453.84,120.4s218.95,160.65,450.82,160.65"/>
  <path class="cls-1" d="M567.79,422.08c-183.34,0-356.47-62.92-356.47-133.35s175.52-99.95,358.86-99.95h-15.19c-192.47,0-376.73,29.52-376.73,99.95s181.75,133.35,374.22,133.35"/>
</svg>